<svg width="355" height="245" viewBox="0 0 355 245" fill="none" xmlns="http://www.w3.org/2000/svg">
<circle cx="85.3254" cy="220.07" r="24.4312" fill="url(#paint0_linear_2006_254)"/>
<path d="M85.8243 212.012C81.3816 202.89 65.1637 208.88 72.9505 221.291C74.2823 223.413 76.2351 225.039 78.2277 226.519C81.5903 229.018 83.3851 230.435 85.8243 232.535C88.2635 230.435 90.0583 229.017 93.4209 226.519C95.4128 225.039 97.3663 223.413 98.6981 221.291C106.484 208.88 90.2663 202.89 85.8243 212.012Z" fill="white"/>
<circle cx="29.9157" cy="29.9157" r="29.9157" fill="url(#paint1_linear_2006_254)"/>
<path d="M46.5455 31.9256C47.3853 30.9963 47.8164 29.8878 47.8384 28.5998C47.8584 27.4318 47.4484 26.4138 46.6112 25.5451C45.7723 24.6765 44.7689 24.2325 43.6008 24.2125L37.3789 24.1059C37.4423 23.8973 37.5053 23.7186 37.5677 23.5699C37.6295 23.4212 37.7156 23.2577 37.823 23.0798C37.9306 22.9018 38.008 22.7683 38.0544 22.6793C38.3325 22.1751 38.546 21.759 38.6941 21.4323C38.8419 21.1049 38.9911 20.6582 39.1436 20.0916C39.2958 19.5253 39.3764 18.9572 39.3861 18.3881C39.3923 18.0289 39.393 17.7365 39.3897 17.5119C39.3866 17.2872 39.3542 16.9495 39.2951 16.499C39.235 16.0488 39.1514 15.6728 39.0445 15.3715C38.9371 15.0702 38.763 14.7299 38.5228 14.3515C38.282 13.9725 37.9878 13.6645 37.6396 13.4262C37.2914 13.1881 36.8456 12.9858 36.3017 12.8193C35.7573 12.6526 35.1413 12.5634 34.452 12.5516C34.0627 12.545 33.7236 12.6815 33.4339 12.9612C33.1293 13.2555 32.8679 13.6255 32.6508 14.071C32.4334 14.5167 32.2806 14.9036 32.1925 15.2318C32.1045 15.5598 32.0029 16.0151 31.8885 16.5971C31.7425 17.2241 31.6341 17.6751 31.5615 17.9509C31.4895 18.2268 31.3519 18.5876 31.1497 19.0335C30.9471 19.4796 30.7091 19.8348 30.4349 20.0999C29.9323 20.5855 29.1608 21.4711 28.1199 22.7564C27.3695 23.7021 26.5978 24.5951 25.8045 25.4354C25.0111 26.2759 24.4345 26.7078 24.0747 26.7317C23.7 26.7551 23.3754 26.9031 23.101 27.1757C22.8266 27.4481 22.6863 27.7716 22.6799 28.1458L22.4332 42.5445C22.4265 42.9339 22.563 43.2694 22.8428 43.5513C23.1225 43.8335 23.4569 43.9852 23.846 44.0069C24.3699 44.0309 25.5473 44.3803 27.3783 45.0564C28.5246 45.4649 29.4216 45.7765 30.0696 45.9896C30.7174 46.2026 31.6241 46.4355 32.7873 46.688C33.9516 46.94 35.0276 47.0748 36.0157 47.0918L36.3977 47.0983L38.105 47.1275L38.9135 47.1414C40.9062 47.1456 42.3906 46.5866 43.3688 45.4652C44.2548 44.4467 44.6448 43.0977 44.5392 41.4182C45.1326 40.8741 45.5493 40.1775 45.7883 39.3276C46.0581 38.4189 46.0731 37.5428 45.8333 36.7C46.5377 35.7983 46.8773 34.778 46.8515 33.6391C46.8616 33.1594 46.7593 32.5886 46.5455 31.9256Z" fill="white"/>
<path d="M19.8302 26.6824L13.3611 26.5716C12.9714 26.5649 12.632 26.7015 12.3427 26.9812C12.0533 27.2607 11.9052 27.5952 11.8985 27.9846L11.6522 42.3614C11.6455 42.7502 11.7821 43.0898 12.0618 43.3795C12.3416 43.6685 12.6762 43.8167 13.0655 43.8233L19.5346 43.9342C19.9239 43.9408 20.2632 43.8042 20.5527 43.525C20.8421 43.245 20.9901 42.9104 20.9967 42.5215L21.2431 28.1447C21.2497 27.7553 21.1132 27.416 20.8337 27.1266C20.554 26.8371 20.2196 26.6891 19.8302 26.6824ZM17.0076 40.5989C16.7184 40.8711 16.3791 41.0038 15.9898 40.9971C15.5854 40.9902 15.247 40.8459 14.9749 40.5641C14.7026 40.2823 14.5699 39.9394 14.5769 39.535C14.5835 39.1457 14.7277 38.811 15.0097 38.5313C15.2915 38.2515 15.6346 38.1148 16.039 38.1218C16.4284 38.1284 16.7628 38.2767 17.0425 38.5661C17.3222 38.8554 17.4587 39.1949 17.452 39.5842C17.4451 39.9886 17.2973 40.3267 17.0076 40.5989Z" fill="white"/>
<circle cx="296.166" cy="101.714" r="58.8343" fill="url(#paint2_linear_2006_254)"/>
<path d="M328.871 105.665C330.522 103.837 331.37 101.657 331.413 99.1239C331.453 96.8267 330.646 94.8247 329 93.1163C327.35 91.4081 325.376 90.5348 323.079 90.4954L310.843 90.2858C310.968 89.8756 311.091 89.5242 311.214 89.2318C311.336 88.9393 311.505 88.6178 311.716 88.2679C311.928 87.9179 312.08 87.6552 312.171 87.4803C312.718 86.4886 313.138 85.6703 313.429 85.0277C313.72 84.3839 314.014 83.5055 314.313 82.3911C314.613 81.2773 314.771 80.1601 314.79 79.0409C314.803 78.3344 314.804 77.7594 314.798 77.3178C314.791 76.8758 314.728 76.2116 314.611 75.3257C314.493 74.4402 314.329 73.7008 314.118 73.1083C313.907 72.5156 313.565 71.8463 313.092 71.1023C312.619 70.3568 312.04 69.7511 311.355 69.2825C310.671 68.8142 309.794 68.4162 308.724 68.0888C307.654 67.7611 306.442 67.5857 305.087 67.5625C304.321 67.5494 303.654 67.8179 303.084 68.368C302.485 68.9468 301.971 69.6744 301.544 70.5506C301.117 71.4272 300.816 72.188 300.643 72.8334C300.47 73.4785 300.27 74.3739 300.045 75.5186C299.758 76.7516 299.545 77.6385 299.402 78.1811C299.26 78.7236 298.99 79.4333 298.592 80.3101C298.194 81.1875 297.726 81.886 297.186 82.4074C296.198 83.3624 294.681 85.1041 292.633 87.6319C291.158 89.4917 289.64 91.248 288.08 92.9006C286.519 94.5535 285.386 95.403 284.678 95.4498C283.941 95.496 283.303 95.7871 282.763 96.3231C282.223 96.8588 281.947 97.495 281.935 98.2311L281.45 126.548C281.436 127.314 281.705 127.974 282.255 128.528C282.805 129.083 283.463 129.382 284.228 129.425C285.258 129.472 287.574 130.159 291.175 131.488C293.429 132.292 295.194 132.905 296.468 133.324C297.742 133.743 299.525 134.201 301.813 134.697C304.102 135.193 306.219 135.458 308.162 135.491L308.913 135.504L312.271 135.562L313.861 135.589C317.78 135.597 320.699 134.498 322.623 132.293C324.366 130.289 325.132 127.636 324.925 124.333C326.092 123.263 326.911 121.893 327.381 120.222C327.912 118.435 327.941 116.712 327.47 115.054C328.855 113.281 329.523 111.274 329.472 109.034C329.492 108.091 329.291 106.968 328.871 105.665Z" fill="white"/>
<path d="M276.328 95.3522L263.606 95.1343C262.84 95.1211 262.172 95.3897 261.603 95.9398C261.034 96.4895 260.743 97.1474 260.729 97.9132L260.245 126.188C260.232 126.952 260.5 127.62 261.051 128.19C261.601 128.758 262.259 129.05 263.025 129.063L275.747 129.281C276.513 129.294 277.18 129.025 277.749 128.476C278.318 127.925 278.61 127.267 278.623 126.502L279.107 98.2281C279.12 97.4623 278.852 96.795 278.302 96.2259C277.752 95.6565 277.094 95.3654 276.328 95.3522ZM270.777 122.721C270.209 123.257 269.541 123.518 268.776 123.504C267.98 123.491 267.315 123.207 266.78 122.653C266.244 122.099 265.983 121.424 265.997 120.629C266.01 119.863 266.294 119.205 266.848 118.655C267.402 118.105 268.077 117.836 268.872 117.85C269.638 117.863 270.296 118.154 270.846 118.724C271.396 119.292 271.665 119.96 271.651 120.726C271.638 121.521 271.347 122.186 270.777 122.721Z" fill="white"/>
<defs>
<linearGradient id="paint0_linear_2006_254" x1="80.838" y1="219.571" x2="87.3197" y2="244.501" gradientUnits="userSpaceOnUse">
<stop stop-color="#FC5E7A"/>
<stop offset="1" stop-color="#C4152D"/>
</linearGradient>
<linearGradient id="paint1_linear_2006_254" x1="26.3664" y1="29.9157" x2="29.9157" y2="59.8315" gradientUnits="userSpaceOnUse">
<stop stop-color="#309EFC"/>
<stop offset="1" stop-color="#1A64D8"/>
</linearGradient>
<linearGradient id="paint2_linear_2006_254" x1="289.185" y1="101.714" x2="296.166" y2="160.548" gradientUnits="userSpaceOnUse">
<stop stop-color="#309EFC"/>
<stop offset="1" stop-color="#1A64D8"/>
</linearGradient>
</defs>
</svg>
